<svg width="52" height="50" viewBox="0 0 52 50" fill="none" xmlns="http://www.w3.org/2000/svg">
<path fill-rule="evenodd" clip-rule="evenodd" d="M5.52108 40.2715V46.6165C5.52108 48.1205 4.29069 49.3506 2.78671 49.3506C1.28273 49.3506 0.0523376 48.1205 0.0523376 46.6165V23.3267C1.94363 25.4837 3.58757 33.304 5.52108 40.2715Z" fill="#2B2A29"/>
<path fill-rule="evenodd" clip-rule="evenodd" d="M24.5531 0C38.1137 0 49.1065 10.9927 49.1065 24.5528C49.1065 32.2593 45.5548 39.1355 40.0003 43.6369H49.2653C50.7701 43.6369 52 44.8673 52 46.3712C52 47.8757 50.7698 49.1058 49.2653 49.1058L24.194 49.1012C10.7993 48.9089 0 37.9929 0 24.5528C0 10.9927 10.9927 0 24.5531 0ZM24.5531 5.58217C35.0307 5.58217 43.5243 14.0756 43.5243 24.5528C43.5243 35.03 35.0307 43.5236 24.5531 43.5236C14.0758 43.5236 5.58216 35.03 5.58216 24.5528C5.58216 14.0756 14.0758 5.58217 24.5531 5.58217Z" fill="#00A0E3"/>
</svg>
