<svg width="191" height="163" viewBox="0 0 191 163" fill="none" xmlns="http://www.w3.org/2000/svg">
<g clip-path="url(#clip0_553_259)">
<path d="M112.164 41.5928H106.502C106.213 41.5924 105.936 41.4776 105.732 41.2735C105.528 41.0694 105.413 40.7926 105.413 40.5039V34.8421C105.413 34.5534 105.528 34.2767 105.732 34.0726C105.936 33.8684 106.213 33.7536 106.502 33.7533H112.164C112.453 33.7536 112.73 33.8684 112.934 34.0726C113.138 34.2767 113.253 34.5534 113.253 34.8421V40.5039C113.253 40.7926 113.138 41.0694 112.934 41.2735C112.73 41.4776 112.453 41.5924 112.164 41.5928ZM106.502 34.1888C106.328 34.189 106.162 34.2579 106.04 34.3804C105.917 34.5028 105.848 34.6689 105.848 34.8421V40.5039C105.848 40.6771 105.917 40.8432 106.04 40.9657C106.162 41.0882 106.328 41.157 106.502 41.1572H112.164C112.338 41.157 112.504 41.0882 112.626 40.9657C112.749 40.8432 112.817 40.6771 112.818 40.5039V34.8421C112.817 34.6689 112.749 34.5028 112.626 34.3804C112.504 34.2579 112.338 34.189 112.164 34.1888H106.502Z" fill="#E6E6E6"/>
<path d="M46.1725 7.83946H40.5098C40.2211 7.83913 39.9443 7.72431 39.7402 7.52019C39.536 7.31607 39.4212 7.03932 39.4208 6.75065V1.08881C39.4212 0.800144 39.536 0.523392 39.7402 0.319271C39.9443 0.11515 40.2211 0.000330249 40.5098 0H46.1725C46.4612 0.000330249 46.738 0.11515 46.9421 0.319271C47.1463 0.523392 47.2611 0.800144 47.2614 1.08881V6.75065C47.2611 7.03932 47.1463 7.31607 46.9421 7.52019C46.738 7.72431 46.4612 7.83913 46.1725 7.83946ZM40.5098 0.435526C40.3366 0.435715 40.1705 0.504604 40.048 0.627078C39.9255 0.749553 39.8566 0.915609 39.8564 1.08881V6.75065C39.8566 6.92385 39.9255 7.08991 40.048 7.21239C40.1705 7.33486 40.3366 7.40375 40.5098 7.40394H46.1725C46.3457 7.40375 46.5118 7.33486 46.6343 7.21239C46.7568 7.08991 46.8257 6.92385 46.8259 6.75065V1.08881C46.8257 0.915609 46.7568 0.749553 46.6343 0.627078C46.5118 0.504604 46.3457 0.435715 46.1725 0.435526H40.5098Z" fill="#E6E6E6"/>
<path d="M108.68 38.7618H103.017C102.728 38.7615 102.451 38.6467 102.247 38.4426C102.043 38.2384 101.928 37.9617 101.928 37.673V32.0112C101.928 31.7225 102.043 31.4458 102.247 31.2416C102.451 31.0375 102.728 30.9227 103.017 30.9224H108.68C108.968 30.9227 109.245 31.0375 109.449 31.2416C109.653 31.4458 109.768 31.7225 109.769 32.0112V37.673C109.768 37.9617 109.653 38.2384 109.449 38.4426C109.245 38.6467 108.968 38.7615 108.68 38.7618ZM103.017 31.3579C102.844 31.3581 102.678 31.427 102.555 31.5494C102.433 31.6719 102.364 31.838 102.364 32.0112V37.673C102.364 37.8462 102.433 38.0123 102.555 38.1347C102.678 38.2572 102.844 38.3261 103.017 38.3263H108.68C108.853 38.3261 109.019 38.2572 109.141 38.1347C109.264 38.0123 109.333 37.8462 109.333 37.673V32.0112C109.333 31.838 109.264 31.6719 109.141 31.5494C109.019 31.427 108.853 31.3581 108.68 31.3579H103.017Z" fill="#E6E6E6"/>
<path d="M10.2364 86.0163H4.57371C4.285 86.016 4.00821 85.9012 3.80406 85.6971C3.59991 85.4929 3.48507 85.2162 3.48474 84.9275V79.2657C3.48507 78.977 3.59991 78.7003 3.80406 78.4962C4.00821 78.292 4.285 78.1772 4.57371 78.1769H10.2364C10.5251 78.1772 10.8019 78.292 11.006 78.4962C11.2102 78.7003 11.325 78.977 11.3254 79.2657V84.9275C11.325 85.2162 11.2102 85.4929 11.006 85.6971C10.8019 85.9012 10.5251 86.016 10.2364 86.0163ZM4.57371 78.6124C4.40048 78.6126 4.2344 78.6815 4.11191 78.804C3.98942 78.9264 3.92052 79.0925 3.92033 79.2657V84.9275C3.92052 85.1007 3.98942 85.2668 4.11191 85.3893C4.2344 85.5117 4.40048 85.5806 4.57371 85.5808H10.2364C10.4096 85.5806 10.5757 85.5117 10.6982 85.3893C10.8207 85.2668 10.8896 85.1007 10.8898 84.9275V79.2657C10.8896 79.0925 10.8207 78.9264 10.6982 78.804C10.5757 78.6815 10.4096 78.6126 10.2364 78.6124H4.57371Z" fill="#E6E6E6"/>
<path d="M6.75164 83.1854H1.08897C0.800261 83.1851 0.523468 83.0703 0.319318 82.8661C0.115167 82.662 0.000330297 82.3853 0 82.0966V76.4348C0.000330297 76.1461 0.115167 75.8693 0.319318 75.6652C0.523468 75.4611 0.800261 75.3463 1.08897 75.3459H6.75164C7.04035 75.3463 7.31714 75.4611 7.52129 75.6652C7.72544 75.8693 7.84028 76.1461 7.84061 76.4348V82.0966C7.84028 82.3853 7.72544 82.662 7.52129 82.8661C7.31714 83.0703 7.04035 83.1851 6.75164 83.1854ZM1.08897 75.7815C0.915744 75.7817 0.749663 75.8506 0.62717 75.973C0.504678 76.0955 0.435779 76.2616 0.43559 76.4348V82.0966C0.435779 82.2698 0.504678 82.4359 0.62717 82.5583C0.749663 82.6808 0.915744 82.7497 1.08897 82.7499H6.75164C6.92487 82.7497 7.09095 82.6808 7.21344 82.5583C7.33593 82.4359 7.40483 82.2698 7.40502 82.0966V76.4348C7.40483 76.2616 7.33593 76.0955 7.21344 75.973C7.09095 75.8506 6.92487 75.7817 6.75164 75.7815H1.08897Z" fill="#E6E6E6"/>
<path d="M20.1306 18.7361H72.5354C75.0642 18.7361 77.5178 19.5963 79.4928 21.1754C81.4678 22.7545 82.8467 24.9584 83.4029 27.4249L109.882 144.857C110.171 146.138 110.176 147.467 109.897 148.75C109.618 150.033 109.062 151.239 108.267 152.285C107.472 153.33 106.459 154.189 105.297 154.801C104.135 155.413 102.853 155.764 101.542 155.829L47.6693 158.483C44.7846 158.625 41.9467 157.713 39.6852 155.916C37.4238 154.12 35.8932 151.563 35.3791 148.721L20.3585 65.6949L19.241 66.0141L16.367 50.2776L17.5173 49.99L13.3245 26.8145C13.1449 25.8219 13.1866 24.8018 13.4465 23.8271C13.7064 22.8524 14.1781 21.947 14.8281 21.1755C15.4781 20.404 16.2904 19.7853 17.2069 19.3637C18.1235 18.942 19.1218 18.7277 20.1306 18.7361Z" fill="#3F3D56"/>
<path d="M65.6364 21.2676H71.7536C73.5104 21.2676 75.2143 21.8683 76.5825 22.97C77.9507 24.0717 78.9009 25.6082 79.2754 27.3243L104.692 143.799C104.838 144.469 104.838 145.163 104.691 145.834C104.545 146.505 104.255 147.136 103.842 147.684C103.429 148.232 102.903 148.685 102.299 149.011C101.695 149.338 101.028 149.53 100.343 149.575L46.6447 153.094C45.1298 153.193 43.6314 152.731 42.4354 151.796C41.2393 150.861 40.4295 149.519 40.1604 148.025L18.4725 27.6372C18.3321 26.858 18.3645 26.0575 18.5673 25.2922C18.7702 24.5268 19.1385 23.8154 19.6464 23.2079C20.1543 22.6005 20.7893 22.1119 21.5066 21.7766C22.224 21.4414 23.0062 21.2676 23.7981 21.2676H29.6012C30.1629 21.2676 30.7089 21.4527 31.1547 21.7943C31.6005 22.1359 31.9212 22.6149 32.0672 23.1572C32.1961 23.6359 32.4793 24.0588 32.8728 24.3604C33.2664 24.662 33.7484 24.8254 34.2443 24.8254H61.7938C62.7648 24.8254 63.7 24.459 64.4124 23.7993C65.1248 23.1397 65.5619 22.2355 65.6364 21.2676Z" fill="white"/>
<path d="M22.6506 41.0714H80.9055L87.1116 69.0309L28.0955 70.1197L22.6506 41.0714Z" fill="#00A0E3"/>
<path d="M77.9705 94.02H91.6853L92.1209 96.6451H78.4061L77.9705 94.02Z" fill="#00A0E3"/>
<path d="M89.1292 80.6281L30.9639 81.8596L30.9697 82.1333L89.135 80.9017L89.1292 80.6281Z" fill="#2F2E41"/>
<path d="M90.9081 88.7016L31.6479 90.0699L31.6543 90.3436L90.9144 88.9752L90.9081 88.7016Z" fill="#2F2E41"/>
<path d="M83.6332 122.111H97.3479L97.7835 124.737H84.0688L83.6332 122.111Z" fill="#00A0E3"/>
<path d="M94.7919 108.719L36.6266 109.951L36.6324 110.225L94.7977 108.993L94.7919 108.719Z" fill="#2F2E41"/>
<path d="M96.5708 116.793L37.3106 118.161L37.3169 118.435L96.5771 117.067L96.5708 116.793Z" fill="#2F2E41"/>
<path d="M134.066 159.23L131.471 159.23L130.236 149.222L134.066 149.222L134.066 159.23Z" fill="#AEE7FF"/>
<path d="M134.727 161.745L126.36 161.744V161.639C126.36 160.775 126.703 159.947 127.314 159.336C127.925 158.725 128.753 158.382 129.617 158.382L134.728 158.383L134.727 161.745Z" fill="#2F2E41"/>
<path d="M166.303 157.531L163.777 158.125L160.281 148.667L164.009 147.789L166.303 157.531Z" fill="#AEE7FF"/>
<path d="M167.524 159.827L159.379 161.745L159.355 161.642C159.157 160.801 159.301 159.916 159.756 159.182C160.21 158.448 160.938 157.924 161.778 157.726L166.753 156.554L167.524 159.827Z" fill="#2F2E41"/>
<path d="M133.535 117.018C133.54 116.497 133.695 104.189 137.069 99.5351L137.119 99.4664L148.878 101.088L148.615 103.672C149.132 104.175 153.201 108.425 154.376 118.491L166.857 152.008L161.055 152.536L143.878 115.948L134.788 155.719H129.036L133.535 117.018Z" fill="#2F2E41"/>
<path d="M135.692 99.9891L136.841 93.9553C136.616 93.6657 135.619 92.2748 135.841 90.6444C135.986 89.5808 136.621 88.6481 137.729 87.8716L140.708 80.9205L140.748 80.897C140.949 80.7788 145.693 78.036 148.279 80.6237C148.344 80.6738 154.711 85.7277 152.154 92.5453L148.998 102.015L135.692 99.9891Z" fill="#CCCCCC"/>
<path d="M131.692 108.152C132.002 108.117 132.301 108.014 132.567 107.851C132.832 107.688 133.059 107.468 133.231 107.208C133.403 106.947 133.516 106.653 133.561 106.344C133.607 106.035 133.584 105.721 133.495 105.422L139.648 100.989L135.964 99.5885L130.686 104.012C130.194 104.196 129.786 104.553 129.54 105.017C129.294 105.481 129.226 106.019 129.35 106.529C129.474 107.04 129.781 107.487 130.213 107.786C130.644 108.085 131.171 108.215 131.692 108.152Z" fill="#AEE7FF"/>
<path d="M132.823 100.982L142.217 93.5822L139.424 84.0424C139.292 83.5907 139.255 83.1167 139.315 82.65C139.374 82.1833 139.529 81.7338 139.77 81.3296C139.993 80.9485 140.293 80.6182 140.651 80.3598C141.009 80.1014 141.417 79.9207 141.849 79.8291C143.457 79.4888 144.917 80.3891 146.187 82.5054L146.197 82.5245C146.407 83.038 151.301 95.1331 147.564 97.7197C143.909 100.25 135.433 103.933 135.348 103.97L135.248 104.013L132.823 100.982Z" fill="#CCCCCC"/>
<path d="M145.308 78.1079C148.45 78.1079 150.998 75.5606 150.998 72.4183C150.998 69.276 148.45 66.7286 145.308 66.7286C142.165 66.7286 139.617 69.276 139.617 72.4183C139.617 75.5606 142.165 78.1079 145.308 78.1079Z" fill="#AEE7FF"/>
<path d="M154.229 70.3872C157.009 70.3872 159.263 68.1337 159.263 65.3538C159.263 62.5739 157.009 60.3203 154.229 60.3203C151.449 60.3203 149.195 62.5739 149.195 65.3538C149.195 68.1337 151.449 70.3872 154.229 70.3872Z" fill="#2F2E41"/>
<path d="M158.571 69.5217C157.92 69.9926 157.165 70.3006 156.37 70.42C155.575 70.5393 154.762 70.4666 154.001 70.2078C153.24 69.949 152.552 69.5118 151.995 68.9326C151.437 68.3534 151.026 67.6491 150.797 66.8788C150.884 67.5691 151.113 68.234 151.47 68.8315C151.826 69.4289 152.303 69.9459 152.87 70.3497C153.437 70.7536 154.081 71.0356 154.762 71.178C155.443 71.3203 156.147 71.3199 156.828 71.1767C157.509 71.0336 158.153 70.7508 158.719 70.3463C159.285 69.9417 159.762 69.4242 160.118 68.8263C160.474 68.2285 160.702 67.5633 160.788 66.8728C160.874 66.1823 160.816 65.4815 160.617 64.8146C160.73 65.7106 160.6 66.6204 160.24 67.4486C159.88 68.2768 159.303 68.9929 158.571 69.5217Z" fill="#2F2E41"/>
<path d="M138.704 69.5273C139.583 67.9542 139.919 67.297 141.052 66.3404C142.054 65.4944 143.287 65.246 144.281 66.0476C145.457 65.5395 146.766 65.4243 148.013 65.7191C149.259 66.0139 150.378 66.7029 151.202 67.6838C152.026 68.6647 152.511 69.8852 152.586 71.164C152.661 72.4428 152.321 73.7116 151.618 74.7821C150.914 75.8525 149.884 76.6674 148.68 77.1057C147.476 77.544 146.163 77.5824 144.935 77.2151C143.708 76.8479 142.632 76.0945 141.867 75.0671C141.102 74.0396 140.689 72.7927 140.689 71.5118C140.69 71.2868 140.703 71.0621 140.729 70.8387C139.865 70.7173 139.568 69.6487 138.704 69.5273Z" fill="#2F2E41"/>
<path d="M190.782 162.016H107.802C107.745 162.016 107.689 161.993 107.648 161.952C107.608 161.911 107.585 161.856 107.585 161.798C107.585 161.74 107.608 161.685 107.648 161.644C107.689 161.603 107.745 161.58 107.802 161.58H190.782C190.84 161.58 190.895 161.603 190.936 161.644C190.977 161.685 191 161.74 191 161.798C191 161.856 190.977 161.911 190.936 161.952C190.895 161.993 190.84 162.016 190.782 162.016Z" fill="#3F3D56"/>
</g>
<defs>
<clipPath id="clip0_553_259">
<rect width="191" height="162.016" fill="white"/>
</clipPath>
</defs>
</svg>
