<svg width="191" height="106" viewBox="0 0 191 106" fill="none" xmlns="http://www.w3.org/2000/svg">
<g clip-path="url(#clip0_553_349)">
<path d="M29.1363 89.8156C24.8949 92.9809 23.6929 98.55 23.6929 98.55C23.6929 98.55 29.3674 98.9873 33.6087 95.822C37.8501 92.6568 39.0521 87.0876 39.0521 87.0876C39.0521 87.0876 33.3776 86.6504 29.1363 89.8156Z" fill="#F1F1F1"/>
<path d="M30.9031 91.3017C28.8647 96.1888 23.7595 98.7072 23.7595 98.7072C23.7595 98.7072 21.9592 93.3021 23.9976 88.415C26.0361 83.5279 31.1412 81.0095 31.1412 81.0095C31.1412 81.0095 32.9415 86.4147 30.9031 91.3017Z" fill="#F1F1F1"/>
<path d="M152.93 77.1738C152.479 74.1348 152.36 71.0558 152.575 67.991L152.93 62.9187C150.974 66.816 151.416 71.9456 152.93 77.1738Z" fill="#CACACA"/>
<path d="M154.456 78.0223C154.239 76.2089 154.182 74.3798 154.285 72.5563L154.456 69.5371C153.514 71.857 153.727 74.9103 154.456 78.0223Z" fill="#CACACA"/>
<path d="M161.237 81.7562V83.4532C161.236 83.588 161.183 83.7171 161.087 83.8125C160.992 83.9078 160.863 83.9616 160.728 83.9623H159.881C159.859 83.9623 159.837 83.9666 159.816 83.9751C159.795 83.9836 159.777 83.9961 159.761 84.0119C159.745 84.0276 159.733 84.0464 159.724 84.067C159.716 84.0876 159.711 84.1097 159.711 84.132V98.0478C159.711 98.1826 159.657 98.3117 159.562 98.407C159.466 98.5023 159.337 98.5562 159.203 98.5569H148.862C148.728 98.5568 148.598 98.5031 148.503 98.4077C148.408 98.3122 148.354 98.1828 148.354 98.0478V84.132C148.354 84.0871 148.336 84.044 148.304 84.0122C148.272 83.9804 148.229 83.9625 148.184 83.9623H147.167C147.033 83.9622 146.903 83.9086 146.808 83.8131C146.713 83.7177 146.659 83.5882 146.659 83.4532V81.7562C146.659 81.6893 146.672 81.6231 146.697 81.5613C146.723 81.4994 146.76 81.4433 146.808 81.396C146.855 81.3487 146.911 81.3112 146.973 81.2856C147.034 81.2601 147.101 81.247 147.167 81.2471H160.728C160.863 81.2475 160.992 81.3012 161.088 81.3966C161.183 81.492 161.237 81.6213 161.237 81.7562Z" fill="#F2F2F2"/>
<path d="M159.727 84.3187H148.369V84.8278H159.727V84.3187Z" fill="#E6E6E6"/>
<path d="M159.711 91.8103C155.911 93.3848 152.069 93.4022 148.184 91.8103V88.2236C151.924 86.9662 155.972 86.9662 159.711 88.2236V91.8103Z" fill="#E6E6E6"/>
<path d="M96.0516 36.9698C104.536 36.9698 111.413 30.0845 111.413 21.591C111.413 13.0975 104.536 6.21216 96.0516 6.21216C87.5676 6.21216 80.6899 13.0975 80.6899 21.591C80.6899 30.0845 87.5676 36.9698 96.0516 36.9698Z" fill="#AEE7FF"/>
<path d="M110.4 8.32338C108.103 4.58973 104.508 1.83854 100.306 0.599413L98.4205 1.97717V0.188194C97.4116 0.0335886 96.3903 -0.0259698 95.3702 0.010302L93.7431 1.48412V0.132747C91.3341 0.43244 89.0133 1.22858 86.927 2.47096C84.8406 3.71334 83.034 5.37502 81.6211 7.35121C78.0877 12.4507 77.4913 19.5452 80.9666 24.6857C81.9205 21.7505 83.0785 18.9965 84.0327 16.0616C84.7825 16.1639 85.5424 16.1676 86.2932 16.0725L87.4538 13.3612L87.7781 15.9578C91.3757 15.6441 96.7118 14.9551 100.122 14.3239L99.7905 12.3318L101.775 13.9871C102.82 13.7464 103.44 13.5278 103.389 13.3609C105.925 17.4548 109.03 20.0694 111.566 24.1633C112.529 18.3907 113.638 13.591 110.4 8.32338Z" fill="#2F2E41"/>
<path d="M129.09 61.1382C128.562 57.9566 128.017 54.714 126.54 51.8479C125.569 49.9706 124.028 48.1816 121.951 47.8104C121.542 47.7739 121.14 47.6807 120.756 47.5335C120.148 47.2399 111.968 42.5656 110.668 41.7515C109.552 41.0526 107.79 39.7584 106.902 39.7584C106.008 39.7388 102.581 40.5373 89.2038 39.4905C89.2038 39.4905 85.5289 40.9406 82.6854 42.6989C82.6423 42.6705 68.8013 50.1114 68.2813 50.0918C67.2966 50.0503 66.3812 50.6815 65.8167 51.4764C65.2523 52.2713 64.9875 53.2553 64.7103 54.2067C67.7334 60.9466 70.4994 67.6952 73.5228 74.4351C73.6644 74.689 73.7396 74.9745 73.7415 75.2652C73.6807 75.567 73.5521 75.8509 73.3654 76.0954C71.8827 78.4797 71.9299 81.4786 72.0918 84.281C72.2539 87.0833 72.4543 90.0434 71.2034 92.5552C70.8631 93.2448 70.4206 93.8761 70.097 94.5657C69.3391 96.1275 69.0652 101.123 69.5079 102.801L124.967 104.392C123.775 101.11 129.09 61.1382 129.09 61.1382Z" fill="#00A0E3"/>
<path d="M59.9165 74.7339C59.8058 75.5353 59.7947 76.3473 59.8833 77.1514L60.6782 88.5797C60.7528 89.6568 60.8262 90.7312 60.9272 91.8057C61.1179 93.8908 61.4028 95.9594 61.7564 98.025C61.7644 98.3183 61.8883 98.5964 62.1009 98.7983C62.3135 99.0003 62.5974 99.1095 62.8904 99.1021C66.3894 99.8433 70.0045 99.8137 73.5755 99.6118C79.0247 99.3073 92.9657 98.7312 93.8174 97.6236C94.6691 96.5159 94.1728 94.7243 93.0622 93.8286C91.9516 92.9329 73.5545 90.7493 73.5545 90.7493C73.7342 89.3232 74.2765 87.9801 74.7909 86.6261C75.7149 84.2246 76.5779 81.7442 76.5945 79.1717C76.6111 76.5991 75.6429 73.8943 73.5379 72.4205C71.8063 71.2105 69.5769 70.9861 67.4668 71.0359C65.9316 71.0801 63.2789 70.7118 61.8767 71.3128C60.767 71.802 60.1238 73.6461 59.9165 74.7339Z" fill="#AEE7FF"/>
<path d="M64.5503 54.4119C64.2809 54.6944 64.072 55.0289 63.9364 55.3951C61.7006 60.4396 60.3799 65.8425 60.0364 71.3506C60.0424 71.6192 59.9806 71.8849 59.8566 72.1232C59.7344 72.2817 59.5983 72.4291 59.45 72.5635C59.3207 72.7169 59.2229 72.8943 59.1621 73.0856C59.1013 73.2769 59.0787 73.4784 59.0957 73.6784C59.1126 73.8784 59.1688 74.0731 59.2609 74.2514C59.353 74.4297 59.4793 74.5881 59.6326 74.7176C59.6577 74.7388 59.6835 74.7592 59.71 74.7788C60.1664 73.919 61.2589 73.6379 62.23 73.5632C66.8795 73.195 71.4213 75.3605 76.0848 75.1971C75.7558 74.0589 75.2825 72.9652 75.0142 71.8134C73.8275 66.6987 76.7872 61.1302 74.9727 56.2038C74.6102 55.218 74.0046 54.2488 73.0504 53.8169C72.6553 53.6573 72.2418 53.5478 71.8196 53.4907C70.6412 53.2776 68.2954 52.3665 67.1561 52.732C66.7356 52.8678 66.5698 53.2636 66.2212 53.5029C65.6917 53.8415 64.9892 53.966 64.5503 54.4119Z" fill="#00A0E3"/>
<path d="M129.123 71.3128C127.721 70.7118 125.068 71.0801 123.533 71.0359C121.423 70.9861 119.194 71.2105 117.462 72.4205C115.357 73.8943 114.389 76.5991 114.405 79.1717C114.422 81.7442 115.285 84.2246 116.209 86.6261C116.723 87.9801 117.266 89.3232 117.445 90.7493C117.445 90.7493 99.0483 92.9329 97.9377 93.8286C96.8272 94.7243 96.3308 96.5159 97.1826 97.6236C98.0343 98.7312 124.611 99.8433 128.11 99.1021C128.403 99.1095 128.686 99.0003 128.899 98.7983C129.112 98.5964 129.236 98.3183 129.244 98.025C129.597 95.9594 129.882 93.8909 130.073 91.8057C130.174 90.7312 130.247 89.6568 130.322 88.5797L131.117 77.1515C131.205 76.3473 131.194 75.5353 131.084 74.7339C130.876 73.6462 130.233 71.802 129.123 71.3128Z" fill="#AEE7FF"/>
<path d="M124.779 53.5029C124.43 53.2636 124.264 52.8678 123.844 52.732C122.705 52.3665 120.359 53.2776 119.18 53.4907C118.758 53.5478 118.345 53.6573 117.95 53.8169C116.995 54.2488 116.39 55.218 116.027 56.2038C114.213 61.1302 117.172 66.6987 115.986 71.8133C115.717 72.9652 115.244 74.0589 114.915 75.1971C119.579 75.3605 124.12 73.195 128.77 73.5632C129.741 73.6379 130.834 73.919 131.29 74.7788C131.316 74.7592 131.342 74.7388 131.367 74.7176C131.521 74.5881 131.647 74.4297 131.739 74.2514C131.831 74.0731 131.887 73.8784 131.904 73.6784C131.921 73.4783 131.899 73.2769 131.838 73.0856C131.777 72.8943 131.679 72.7169 131.55 72.5635C131.402 72.4291 131.266 72.2817 131.143 72.1232C131.019 71.8849 130.958 71.6192 130.964 71.3506C130.62 65.8424 129.299 60.4396 127.064 55.3951C126.928 55.0289 126.719 54.6943 126.45 54.4119C126.011 53.966 125.308 53.8415 124.779 53.5029Z" fill="#00A0E3"/>
<path d="M91.5019 99.6479C93.7918 99.6479 95.648 97.7896 95.648 95.4972C95.648 93.2048 93.7918 91.3464 91.5019 91.3464C89.2121 91.3464 87.3558 93.2048 87.3558 95.4972C87.3558 97.7896 89.2121 99.6479 91.5019 99.6479Z" fill="#AEE7FF"/>
<path d="M100.683 99.6479C102.972 99.6479 104.829 97.7896 104.829 95.4972C104.829 93.2048 102.972 91.3464 100.683 91.3464C98.3928 91.3464 96.5365 93.2048 96.5365 95.4972C96.5365 97.7896 98.3928 99.6479 100.683 99.6479Z" fill="#AEE7FF"/>
<path d="M126.275 104.85H69.3142C68.6492 104.85 68.0116 104.585 67.5414 104.114C67.0711 103.643 66.8066 103.005 66.8058 102.339V67.7438C66.8066 67.078 67.0711 66.4397 67.5414 65.969C68.0116 65.4982 68.6492 65.2334 69.3142 65.2327H126.275C126.941 65.2334 127.578 65.4982 128.048 65.969C128.519 66.4397 128.783 67.078 128.784 67.7438V102.339C128.783 103.005 128.519 103.643 128.048 104.114C127.578 104.585 126.941 104.85 126.275 104.85Z" fill="#3F3D56"/>
<path d="M97.6567 86.703C98.5733 86.703 99.3163 85.9591 99.3163 85.0415C99.3163 84.1239 98.5733 83.38 97.6567 83.38C96.7401 83.38 95.9971 84.1239 95.9971 85.0415C95.9971 85.9591 96.7401 86.703 97.6567 86.703Z" fill="white"/>
<path d="M191 97.8723H0V103.748H11.2974V105.114H179.707V103.748H191V97.8723Z" fill="#F1F1F1"/>
<path d="M81.9256 27.323C79.4573 27.323 77.4563 25.1571 77.4563 22.4853V20.0664C77.4563 17.3946 79.4573 15.2286 81.9256 15.2286L81.9256 27.323Z" fill="#00A0E3"/>
<path d="M110.452 15.2286C112.92 15.2286 114.921 17.3946 114.921 20.0664V22.4853C114.921 25.1571 112.92 27.323 110.452 27.323V15.2286Z" fill="#00A0E3"/>
<path d="M112.793 20.4464H112.084C112.084 10.712 104.768 2.79234 95.7749 2.79234C86.7819 2.79234 79.4654 10.712 79.4654 20.4464H78.7563C78.7563 10.2887 86.3908 2.02478 95.7749 2.02478C105.159 2.02478 112.793 10.2887 112.793 20.4464Z" fill="#00A0E3"/>
</g>
<defs>
<clipPath id="clip0_553_349">
<rect width="191" height="105.114" fill="white"/>
</clipPath>
</defs>
</svg>
