<svg width="191" height="166" viewBox="0 0 191 166" fill="none" xmlns="http://www.w3.org/2000/svg">
<g clip-path="url(#clip0_553_298)">
<path d="M10.5891 163.22C10.5891 163.22 7.49139 157.504 0 159.976L10.5891 163.22Z" fill="#E6E6E6"/>
<path d="M10.7759 163.08C10.7759 163.08 6.94494 158.212 12.4743 152.139L10.7759 163.08Z" fill="#E6E6E6"/>
<path d="M191 162.86H0V163.29H191V162.86Z" fill="#3F3D56"/>
<path d="M144.943 110.315L149.079 126.393C149.079 126.393 149.232 137.724 150.151 142.164C151.07 146.605 154.133 157.323 154.133 157.323L157.809 157.936L157.043 142.93C157.043 142.93 157.043 133.896 156.278 131.905C155.512 129.915 153.98 109.55 153.98 109.55L144.943 110.315Z" fill="#AEE7FF"/>
<path opacity="0.1" d="M144.728 109.24L148.864 125.318C148.864 125.318 149.017 136.649 149.936 141.089C150.855 145.53 153.918 156.248 153.918 156.248L157.594 156.861L156.829 141.855C156.829 141.855 156.829 132.821 156.063 130.83C155.297 128.84 153.765 108.474 153.765 108.474L144.728 109.24Z" fill="black"/>
<path d="M156.409 42.9275C151.303 42.9275 147.164 47.5193 147.164 53.1836V60.3801H149.378L150.66 57.7137L150.34 60.3801H164.571L165.736 57.9561L165.445 60.3801H167.047V54.7295C167.047 48.2114 162.284 42.9275 156.409 42.9275Z" fill="#2F2E41"/>
<path d="M141.037 107.789C141.037 107.789 139.199 115.598 141.65 116.363C144.101 117.129 143.488 107.789 143.488 107.789H141.037Z" fill="#AEE7FF"/>
<path d="M144.101 68.1304L142.875 69.5084L143.182 95.9984L140.425 108.554L146.551 109.167L149.615 83.9018L148.696 71.0396L144.101 68.1304Z" fill="#D0CDE1"/>
<path opacity="0.1" d="M144.045 68.1304L142.82 69.5084L143.126 95.9984L140.369 108.554L146.496 109.167L149.559 83.9018L148.64 71.0396L144.045 68.1304Z" fill="black"/>
<path d="M155.591 59.3745C159.226 59.3745 162.172 56.429 162.172 52.7955C162.172 49.162 159.226 46.2164 155.591 46.2164C151.956 46.2164 149.01 49.162 149.01 52.7955C149.01 56.429 151.956 59.3745 155.591 59.3745Z" fill="#AEE7FF"/>
<path d="M151.818 56.7428C151.818 56.7428 153.748 66.7429 152.871 67.7956C151.993 68.8482 162.172 65.8657 162.172 65.8657C162.172 65.8657 158.838 59.0235 160.593 55.1638L151.818 56.7428Z" fill="#AEE7FF"/>
<path d="M168.455 100.592C168.455 100.592 170.293 108.401 167.842 109.167C165.391 109.932 166.004 100.592 166.004 100.592H168.455Z" fill="#AEE7FF"/>
<path d="M154.286 108.478C154.286 108.478 151.683 124.096 151.836 126.393C151.989 128.69 151.836 128.996 151.836 128.996C151.836 128.996 149.232 135.733 148.466 139.561C147.7 143.389 146.015 148.289 146.015 148.289C146.015 148.289 144.024 152.73 145.709 152.73C147.394 152.73 149.691 152.117 149.691 152.117C149.685 150.348 150.279 148.63 151.376 147.242C153.214 144.92 158.728 134.049 158.728 132.671C158.728 131.293 159.647 127.312 159.647 127.312L163.17 110.315L154.286 108.478Z" fill="#AEE7FF"/>
<path d="M143.565 98.0656C143.565 98.0656 140.961 111.234 143.258 111.54C145.556 111.846 148.772 109.55 152.908 112.153C157.044 114.756 163.936 114.143 163.936 114.143C163.936 114.143 168.684 102.047 164.396 99.1374C160.107 96.2281 143.565 98.0656 143.565 98.0656Z" fill="#2F2E41"/>
<path d="M146.475 150.892C147.149 150.599 147.89 150.493 148.619 150.586C149.317 150.689 150.028 150.525 150.61 150.127C150.61 150.127 149.385 154.567 149.538 156.251C149.691 157.936 149.079 165.132 145.862 164.367C142.646 163.601 141.727 161.304 142.952 157.323C144.177 153.342 143.871 148.748 143.871 148.748C143.871 148.748 146.106 146.44 146.52 146.752C146.934 147.064 146.475 150.892 146.475 150.892Z" fill="#2F2E41"/>
<path d="M156.737 156.558C156.737 156.558 155.206 153.189 153.368 156.251C151.529 159.314 151.376 160.079 151.376 160.079C151.376 160.079 146.169 164.826 149.845 165.285C153.521 165.745 156.431 165.132 156.431 164.367C156.431 163.601 158.269 163.754 158.422 163.142C158.575 162.529 158.116 156.864 158.116 156.864L156.737 156.558Z" fill="#2F2E41"/>
<path d="M160.184 61.8526C160.184 61.8526 153.75 63.0775 152.985 62.9244C152.812 62.894 152.638 62.8755 152.462 62.8691C150.965 62.801 149.479 63.1692 148.187 63.929C146.054 65.1676 142.875 67.3719 142.875 69.5086C142.875 72.7241 147.011 78.2365 147.011 78.2365C147.011 78.2365 143.182 91.4048 143.488 92.6298C143.794 93.8548 141.191 97.989 142.875 99.3671C144.56 100.745 160.643 99.3671 163.553 100.745C166.463 102.123 165.085 82.3707 165.085 82.3707C165.085 82.3707 172.897 64.4556 168.914 62.7713C167.626 62.2263 166.513 61.8095 165.598 61.4951C164.717 61.1919 163.785 61.0674 162.855 61.1288C161.925 61.1901 161.017 61.4362 160.184 61.8526Z" fill="#D0CDE1"/>
<path d="M166.157 62.9244L169.672 63.5051C169.672 63.5051 171.212 65.0681 171.212 65.8337C171.212 66.5993 170.905 99.6734 170.446 100.745C169.986 101.817 164.932 101.358 164.932 101.358L165.851 82.5239L166.157 62.9244Z" fill="#D0CDE1"/>
<path d="M159.037 45.7527C158.592 45.1555 158.016 44.6688 157.352 44.3304C156.689 43.9919 155.956 43.8108 155.211 43.8011H155.03C151.531 43.8011 148.694 46.9667 148.694 50.8715L149.866 50.8716L150.056 49.4307L150.333 50.8716H157.288L157.87 49.6525L157.725 50.8716H159.093C159.731 54.0411 158.814 57.2106 156.341 60.3801H158.671L159.837 57.942L159.545 60.3801H163.988L164.862 54.7725C164.862 50.5729 162.421 47.0118 159.037 45.7527Z" fill="#2F2E41"/>
<path d="M160.314 46.3432C162.227 46.3432 163.777 44.7935 163.777 42.8818C163.777 40.9701 162.227 39.4204 160.314 39.4204C158.402 39.4204 156.852 40.9701 156.852 42.8818C156.852 44.7935 158.402 46.3432 160.314 46.3432Z" fill="#2F2E41"/>
<path d="M121.244 38.7562H120.347V14.2079C120.347 12.3421 119.98 10.4946 119.265 8.77077C118.551 7.04699 117.504 5.48072 116.184 4.16139C114.865 2.84206 113.298 1.79551 111.574 1.0815C109.849 0.36749 108.001 -4.80024e-06 106.135 0H54.1092C52.2428 -5.64736e-06 50.3947 0.367489 48.6703 1.0815C46.946 1.79551 45.3792 2.84206 44.0595 4.16139C42.7397 5.48071 41.6928 7.04698 40.9786 8.77077C40.2643 10.4946 39.8967 12.3421 39.8967 14.2079V148.882C39.8967 150.748 40.2643 152.595 40.9786 154.319C41.6928 156.043 42.7397 157.609 44.0595 158.928C45.3792 160.248 46.946 161.294 48.6703 162.008C50.3947 162.722 52.2428 163.09 54.1092 163.09H106.135C108.001 163.09 109.849 162.722 111.574 162.008C113.298 161.294 114.865 160.248 116.184 158.928C117.504 157.609 118.551 156.043 119.265 154.319C119.98 152.595 120.347 150.748 120.347 148.882V56.2301H121.244V38.7562Z" fill="#3F3D56"/>
<path opacity="0.2" d="M106.708 3.69641H99.9172C100.229 4.46183 100.349 5.29229 100.264 6.11462C100.18 6.93695 99.8946 7.72592 99.4333 8.41202C98.9721 9.09812 98.3491 9.6603 97.6194 10.049C96.8896 10.4378 96.0754 10.6411 95.2485 10.6412H65.4437C64.6168 10.6411 63.8026 10.4378 63.0728 10.049C62.3431 9.6603 61.7201 9.09812 61.2589 8.41202C60.7976 7.72591 60.5123 6.93695 60.4279 6.11462C60.3435 5.29229 60.4627 4.46183 60.775 3.69641H54.4322C53.0384 3.69641 51.6582 3.97085 50.3705 4.50407C49.0828 5.03728 47.9127 5.81883 46.9272 6.80409C45.9416 7.78934 45.1598 8.95901 44.6264 10.2463C44.093 11.5336 43.8185 12.9133 43.8185 14.3067V148.783C43.8185 150.176 44.093 151.556 44.6264 152.843C45.1598 154.131 45.9416 155.3 46.9272 156.286C47.9127 157.271 49.0828 158.052 50.3705 158.586C51.6582 159.119 53.0384 159.393 54.4322 159.393H106.708C108.102 159.393 109.482 159.119 110.77 158.586C112.058 158.052 113.228 157.271 114.213 156.286C115.199 155.3 115.981 154.131 116.514 152.843C117.047 151.556 117.322 150.176 117.322 148.783V14.3067C117.322 12.9133 117.047 11.5336 116.514 10.2463C115.981 8.95901 115.199 7.78934 114.213 6.80409C113.228 5.81883 112.058 5.03728 110.77 4.50407C109.482 3.97085 108.102 3.69641 106.708 3.69641Z" fill="black"/>
<path d="M94.3652 93.7784H104.437V91.3546H94.3652V93.7784Z" fill="#00A0E3"/>
<path d="M59.4882 93.7784H63.0319V91.3546H59.4882V93.7784Z" fill="#00A0E3"/>
<path d="M52.4008 93.7784H55.9445V91.3546H52.4008V93.7784Z" fill="#00A0E3"/>
<path d="M66.762 93.7784H90.8215V91.3546H66.762V93.7784Z" fill="#00A0E3"/>
<path d="M72.1707 109.44H75.7144V107.016H72.1707V109.44Z" fill="#00A0E3"/>
<path d="M65.0834 109.44H68.6271V107.016H65.0834V109.44Z" fill="#00A0E3"/>
<path d="M79.4446 109.44H103.504V107.016H79.4446V109.44Z" fill="#00A0E3"/>
<path d="M65.4564 99.1854H75.5278V96.7616H65.4564V99.1854Z" fill="#00A0E3"/>
<path d="M51.8413 99.1854H61.9127V96.7616H51.8413V99.1854Z" fill="#00A0E3"/>
<path d="M106.488 99.1854H110.032V96.7616H106.488V99.1854Z" fill="#00A0E3"/>
<path d="M78.885 99.1854H102.945V96.7616H78.885V99.1854Z" fill="#00A0E3"/>
<path d="M96.4168 101.982H86.3453V104.406H96.4168V101.982Z" fill="#00A0E3"/>
<path d="M110.032 101.982H99.9604V104.406H110.032V101.982Z" fill="#00A0E3"/>
<path d="M55.385 101.982H51.8413V104.406H55.385V101.982Z" fill="#00A0E3"/>
<path d="M82.9882 101.982H58.9286V104.406H82.9882V101.982Z" fill="#00A0E3"/>
<path d="M80.6101 70.964C91.2383 70.964 99.8542 62.3509 99.8542 51.726C99.8542 41.1012 91.2383 32.488 80.6101 32.488C69.9819 32.488 61.366 41.1012 61.366 51.726C61.366 62.3509 69.9819 70.964 80.6101 70.964Z" fill="#00A0E3"/>
<path d="M79.2354 58.5967C82.6516 58.5967 85.421 55.8281 85.421 52.413C85.421 48.9979 82.6516 46.2294 79.2354 46.2294C75.8192 46.2294 73.0498 48.9979 73.0498 52.413C73.0498 55.8281 75.8192 58.5967 79.2354 58.5967Z" fill="white"/>
<path d="M79.4235 52.7833C79.0386 52.1911 79.2332 51.3858 78.9632 50.7332C78.5394 49.7084 77.2222 49.4683 76.1168 49.3748C75.3845 49.2808 74.6431 49.2828 73.9113 49.3807C73.5879 49.4345 73.2814 49.5626 73.016 49.755C72.7505 49.9474 72.5334 50.1988 72.3818 50.4893C72.2182 50.8172 72.2595 49.7899 72.3643 48.4712C72.4704 47.1254 73.0011 45.8481 73.8799 44.8232C74.7588 43.7983 75.9404 43.0788 77.2545 42.7684C77.2702 42.7647 77.2856 42.7611 77.301 42.7575C78.6468 42.4472 80.0345 42.2188 81.4062 42.3799C82.7779 42.541 84.1452 43.1329 85.0013 44.2164C85.3925 44.7117 85.6692 45.2956 86.106 45.7512C86.8734 46.5517 88.011 46.843 89.056 47.2144C90.2379 47.6345 91.3868 48.2108 92.2908 49.0801C93.1947 49.9494 93.8355 51.1407 93.8544 52.3945C93.8765 53.857 92.9458 55.3664 91.4462 55.6547C91.1854 55.7002 90.9391 55.8065 90.7271 55.965C89.2952 57.0748 90.9286 58.2367 90.9173 59.4861C90.9079 60.5287 89.7468 61.2083 88.705 61.2569C87.731 61.2744 86.7812 60.9527 86.0184 60.3469C85.2557 59.7411 84.7274 58.889 84.5242 57.9366C84.3672 57.0809 84.4884 56.2022 84.5906 55.3383C84.7076 54.3494 82.5773 52.0209 83.9845 53.7276C84.2591 54.052 84.4446 54.4423 84.5225 54.86C84.7567 56.2235 83.5155 56.6821 82.7329 57.4376C82.3031 57.865 82.0018 58.4041 81.863 58.994C81.7243 59.5839 81.7536 60.2008 81.9478 60.7748C81.3024 60.1903 80.8813 59.3989 80.7573 58.5372C80.6332 57.6754 80.8139 56.7974 81.2683 56.0547C81.5204 55.6682 81.8452 55.3319 82.0843 54.9371C82.4574 54.3212 82.5603 52.9814 81.516 53.0182C80.7707 53.0445 79.9964 53.6648 79.4235 52.7833Z" fill="#2F2E41"/>
</g>
<defs>
<clipPath id="clip0_553_298">
<rect width="191" height="165.444" fill="white"/>
</clipPath>
</defs>
</svg>
