<svg width="191" height="139" viewBox="0 0 191 139" fill="none" xmlns="http://www.w3.org/2000/svg">
<g clip-path="url(#clip0_553_213)">
<path d="M121.715 104.204V137.711H38.1013C28.5746 137.711 20.8237 130.195 20.8237 120.958C20.8237 111.72 28.5746 104.204 38.1013 104.204H121.715Z" fill="#F2F2F2"/>
<path d="M123.769 137.454C123.768 137.795 123.633 138.123 123.392 138.365C123.152 138.606 122.825 138.742 122.485 138.742H36.612C31.948 138.742 27.4751 136.882 24.1772 133.571C20.8794 130.26 19.0266 125.769 19.0266 121.087C19.0266 116.404 20.8794 111.913 24.1772 108.602C27.4751 105.291 31.948 103.431 36.612 103.431H122.485C122.825 103.431 123.152 103.567 123.393 103.808C123.633 104.05 123.769 104.378 123.769 104.72C123.769 105.061 123.633 105.389 123.393 105.631C123.152 105.872 122.825 106.008 122.485 106.008H36.612C32.6289 106.008 28.809 107.597 25.9925 110.425C23.1761 113.252 21.5938 117.088 21.5938 121.087C21.5938 125.086 23.1761 128.921 25.9925 131.748C28.809 134.576 32.6289 136.165 36.612 136.165H122.485C122.825 136.165 123.152 136.301 123.392 136.542C123.633 136.784 123.768 137.112 123.769 137.454Z" fill="#00A0E3"/>
<path d="M121.715 111.936H31.8626C31.7946 111.936 31.7293 111.909 31.6811 111.861C31.633 111.813 31.6059 111.747 31.6059 111.679C31.6059 111.61 31.633 111.545 31.6811 111.496C31.7293 111.448 31.7946 111.421 31.8626 111.421H121.715C121.783 111.421 121.848 111.448 121.896 111.496C121.944 111.545 121.972 111.61 121.972 111.679C121.972 111.747 121.944 111.813 121.896 111.861C121.848 111.909 121.783 111.936 121.715 111.936Z" fill="#CCCCCC"/>
<path d="M121.715 118.122H31.8626C31.7946 118.122 31.7293 118.095 31.6811 118.047C31.633 117.999 31.6059 117.933 31.6059 117.865C31.6059 117.796 31.633 117.731 31.6811 117.682C31.7293 117.634 31.7946 117.607 31.8626 117.607H121.715C121.783 117.607 121.848 117.634 121.896 117.682C121.944 117.731 121.972 117.796 121.972 117.865C121.972 117.933 121.944 117.999 121.896 118.047C121.848 118.095 121.783 118.122 121.715 118.122Z" fill="#CCCCCC"/>
<path d="M121.715 124.308H31.8626C31.7946 124.308 31.7293 124.281 31.6811 124.233C31.633 124.185 31.6059 124.119 31.6059 124.051C31.6059 123.982 31.633 123.917 31.6811 123.868C31.7293 123.82 31.7946 123.793 31.8626 123.793H121.715C121.783 123.793 121.848 123.82 121.896 123.868C121.944 123.917 121.972 123.982 121.972 124.051C121.972 124.119 121.944 124.185 121.896 124.233C121.848 124.281 121.783 124.308 121.715 124.308Z" fill="#CCCCCC"/>
<path d="M121.715 130.494H31.8626C31.7946 130.494 31.7293 130.467 31.6811 130.419C31.633 130.37 31.6059 130.305 31.6059 130.237C31.6059 130.168 31.633 130.103 31.6811 130.054C31.7293 130.006 31.7946 129.979 31.8626 129.979H121.715C121.783 129.979 121.848 130.006 121.896 130.054C121.944 130.103 121.972 130.168 121.972 130.237C121.972 130.305 121.944 130.37 121.896 130.419C121.848 130.467 121.783 130.494 121.715 130.494Z" fill="#CCCCCC"/>
<path d="M186.336 110.511L165.396 136.603L100.288 83.9318C92.8701 77.9307 91.5314 67.1956 97.3042 60.0024C103.077 52.8091 113.809 51.8392 121.228 57.8404L186.336 110.511Z" fill="#F2F2F2"/>
<path d="M167.157 137.696C166.943 137.962 166.633 138.132 166.295 138.168C165.956 138.205 165.617 138.105 165.352 137.891L98.4843 83.7965C94.8526 80.8585 92.5321 76.5924 92.0332 71.9367C91.5344 67.2809 92.8981 62.6169 95.8243 58.9707C98.7506 55.3244 103 52.9946 107.637 52.4938C112.274 51.993 116.919 53.3621 120.551 56.3001L187.419 110.394C187.55 110.5 187.659 110.632 187.74 110.78C187.821 110.929 187.872 111.092 187.89 111.26C187.908 111.428 187.893 111.599 187.846 111.761C187.798 111.924 187.719 112.075 187.613 112.207C187.508 112.339 187.377 112.448 187.229 112.529C187.081 112.611 186.919 112.662 186.751 112.68C186.583 112.698 186.414 112.682 186.252 112.635C186.09 112.587 185.939 112.508 185.808 112.401L118.94 58.3071C117.405 57.0638 115.64 56.1365 113.748 55.578C111.855 55.0196 109.871 54.841 107.91 55.0525C105.948 55.2639 104.048 55.8613 102.316 56.8104C100.585 57.7595 99.0565 59.0419 97.8188 60.5841C96.581 62.1264 95.6581 63.8984 95.1026 65.7988C94.5471 67.6993 94.37 69.691 94.5814 71.6602C94.7928 73.6294 95.3885 75.5375 96.3346 77.2755C97.2806 79.0135 98.5584 80.5474 100.095 81.7894L166.963 135.884C167.228 136.098 167.397 136.41 167.433 136.749C167.47 137.089 167.37 137.43 167.157 137.696Z" fill="#CCCCCC"/>
<path d="M181.504 116.532L111.538 59.9316C111.511 59.9104 111.489 59.8841 111.473 59.8544C111.457 59.8247 111.447 59.7921 111.443 59.7585C111.44 59.7248 111.443 59.6908 111.452 59.6583C111.462 59.6258 111.478 59.5955 111.499 59.5692C111.52 59.5428 111.546 59.5209 111.576 59.5047C111.605 59.4885 111.638 59.4782 111.671 59.4746C111.705 59.471 111.739 59.474 111.771 59.4836C111.803 59.4931 111.833 59.509 111.86 59.5302L181.826 116.131C181.852 116.152 181.874 116.178 181.89 116.208C181.906 116.238 181.917 116.271 181.92 116.304C181.924 116.338 181.921 116.372 181.911 116.404C181.902 116.437 181.886 116.467 181.865 116.494C181.844 116.52 181.818 116.542 181.788 116.558C181.758 116.574 181.726 116.585 181.692 116.588C181.659 116.592 181.625 116.589 181.592 116.579C181.56 116.57 181.53 116.554 181.504 116.532Z" fill="#CCCCCC"/>
<path d="M177.638 121.349L107.672 64.7485C107.619 64.7056 107.585 64.6433 107.578 64.5754C107.571 64.5075 107.591 64.4395 107.633 64.3863C107.676 64.3331 107.738 64.2991 107.806 64.2918C107.873 64.2844 107.941 64.3043 107.994 64.3471L177.96 120.948C177.986 120.969 178.008 120.995 178.024 121.025C178.041 121.055 178.051 121.087 178.054 121.121C178.058 121.155 178.055 121.189 178.046 121.221C178.036 121.254 178.02 121.284 177.999 121.311C177.978 121.337 177.952 121.359 177.922 121.375C177.893 121.391 177.86 121.402 177.827 121.405C177.793 121.409 177.759 121.406 177.727 121.396C177.694 121.387 177.664 121.371 177.638 121.349Z" fill="#CCCCCC"/>
<path d="M173.772 126.166L103.806 69.5654C103.753 69.5225 103.719 69.4602 103.712 69.3923C103.705 69.3243 103.725 69.2562 103.767 69.203C103.81 69.1497 103.872 69.1157 103.94 69.1084C104.007 69.1011 104.075 69.1211 104.128 69.164L174.094 125.765C174.121 125.786 174.142 125.812 174.159 125.842C174.175 125.872 174.185 125.904 174.189 125.938C174.192 125.972 174.189 126.006 174.18 126.038C174.17 126.071 174.154 126.101 174.133 126.127C174.112 126.154 174.086 126.176 174.056 126.192C174.027 126.208 173.994 126.218 173.961 126.222C173.927 126.225 173.893 126.222 173.861 126.213C173.829 126.203 173.798 126.187 173.772 126.166Z" fill="#CCCCCC"/>
<path d="M169.906 130.983L99.9404 74.3823C99.9141 74.361 99.8923 74.3348 99.8761 74.3051C99.86 74.2754 99.8498 74.2428 99.8462 74.2091C99.8426 74.1755 99.8456 74.1415 99.8551 74.109C99.8646 74.0765 99.8804 74.0462 99.9016 74.0199C99.9227 73.9935 99.9488 73.9716 99.9784 73.9554C100.008 73.9391 100.04 73.9289 100.074 73.9253C100.108 73.9217 100.141 73.9247 100.174 73.9343C100.206 73.9438 100.236 73.9596 100.263 73.9809L170.229 130.582C170.255 130.603 170.277 130.629 170.293 130.659C170.309 130.689 170.319 130.721 170.323 130.755C170.327 130.789 170.324 130.823 170.314 130.855C170.305 130.888 170.289 130.918 170.268 130.944C170.247 130.971 170.22 130.993 170.191 131.009C170.161 131.025 170.129 131.035 170.095 131.039C170.062 131.042 170.028 131.039 169.995 131.03C169.963 131.02 169.933 131.004 169.906 130.983Z" fill="#CCCCCC"/>
<path d="M190.743 139H0.25672C0.188634 139 0.123336 138.973 0.0751915 138.924C0.0270471 138.876 0 138.811 0 138.742C0 138.674 0.0270471 138.608 0.0751915 138.56C0.123336 138.512 0.188634 138.484 0.25672 138.484H190.743C190.811 138.484 190.877 138.512 190.925 138.56C190.973 138.608 191 138.674 191 138.742C191 138.811 190.973 138.876 190.925 138.924C190.877 138.973 190.811 139 190.743 139Z" fill="#CCCCCC"/>
<path d="M86.7923 100.682L83.8575 100.682L82.4617 89.3162L86.7933 89.3167L86.7923 100.682Z" fill="#FFB8B8"/>
<path d="M81.7609 99.84H87.4211V103.418H78.1972C78.1972 102.948 78.2893 102.483 78.4684 102.049C78.6475 101.615 78.91 101.22 79.241 100.888C79.5719 100.556 79.9648 100.292 80.3971 100.112C80.8295 99.9325 81.2929 99.84 81.7609 99.84Z" fill="#2F2E41"/>
<path d="M56.8086 100.682L53.8738 100.682L52.478 89.3162L56.8097 89.3167L56.8086 100.682Z" fill="#FFB8B8"/>
<path d="M51.7774 99.84H57.4375V103.418H48.2136C48.2136 102.948 48.3058 102.483 48.4849 102.049C48.664 101.615 48.9265 101.22 49.2574 100.888C49.5884 100.556 49.9812 100.292 50.4136 100.112C50.846 99.9325 51.3094 99.84 51.7774 99.84Z" fill="#2F2E41"/>
<path d="M66.6115 16.3755V15.0868C66.6115 12.8822 67.4837 10.7679 69.0364 9.20906C70.5891 7.65018 72.6949 6.77441 74.8907 6.77441C77.0865 6.77441 79.1924 7.65018 80.745 9.20906C82.2977 10.7679 83.1699 12.8822 83.1699 15.0868V16.3755C83.1699 17.9649 82.5411 19.4892 81.4217 20.613C80.3024 21.7368 78.7842 22.3682 77.2012 22.3682H72.5802C71.7964 22.3682 71.0203 22.2132 70.2961 21.912C69.5719 21.6109 68.9139 21.1695 68.3597 20.613C67.8054 20.0565 67.3658 19.3959 67.0658 18.6688C66.7659 17.9418 66.6115 17.1625 66.6115 16.3755Z" fill="#2F2E41"/>
<path d="M74.8907 22.8116C78.373 22.8116 81.196 19.9773 81.196 16.4811C81.196 12.9848 78.373 10.1505 74.8907 10.1505C71.4084 10.1505 68.5854 12.9848 68.5854 16.4811C68.5854 19.9773 71.4084 22.8116 74.8907 22.8116Z" fill="#FFB8B8"/>
<path d="M40.5938 38.2384C40.8497 37.9958 41.1554 37.8125 41.4895 37.7014C41.8236 37.5902 42.1778 37.554 42.5274 37.5952C42.8769 37.6365 43.2132 37.7541 43.5125 37.9399C43.8118 38.1258 44.0669 38.3752 44.2599 38.6707L49.665 37.6442L51.0875 40.7899L43.4341 42.1319C42.9181 42.4244 42.3132 42.5167 41.734 42.3913C41.1548 42.266 40.6415 41.9317 40.2914 41.4517C39.9414 40.9718 39.7788 40.3796 39.8345 39.7874C39.8902 39.1951 40.1604 38.644 40.5938 38.2384Z" fill="#FFB8B8"/>
<path d="M70.0456 26.9059L61.1822 32.7683L46.2261 37.5632C46.0278 37.6272 45.8578 37.7581 45.7449 37.9338C45.632 38.1095 45.5832 38.319 45.6068 38.5267L45.9331 41.3482C45.9476 41.4731 45.9879 41.5936 46.0514 41.7019C46.115 41.8102 46.2004 41.904 46.3022 41.9772C46.4039 42.0505 46.5198 42.1016 46.6424 42.1272C46.765 42.1529 46.8915 42.1526 47.014 42.1262L61.0899 39.097C61.7711 38.9512 62.4152 38.6665 62.9823 38.2605L72.9399 31.1474C73.3009 30.8881 73.589 30.5395 73.776 30.1354C73.9631 29.7313 74.0428 29.2854 74.0075 28.8412C73.971 28.3964 73.8197 27.9688 73.5687 27.6004C73.3176 27.2321 72.9754 26.9357 72.5756 26.7404C72.1759 26.5452 71.7324 26.4577 71.2888 26.4868C70.8452 26.5158 70.4168 26.6602 70.0456 26.9059Z" fill="#CCCCCC"/>
<path d="M83.9099 97.4568C83.6846 97.4568 83.4642 97.391 83.2756 97.2674C83.087 97.1438 82.9383 96.9677 82.8477 96.7606L69.393 63.3819C69.3616 63.3095 69.3088 63.2485 69.2418 63.2071C69.1749 63.1657 69.0969 63.1459 69.0183 63.1504C68.9398 63.1548 68.8645 63.1833 68.8026 63.232C68.7407 63.2807 68.6951 63.3472 68.6719 63.4227L57.695 95.918C57.6487 96.0692 57.572 96.2093 57.4697 96.3297C57.3675 96.4501 57.2418 96.5482 57.1003 96.618C56.9589 96.6878 56.8048 96.7278 56.6474 96.7356C56.49 96.7433 56.3327 96.7187 56.1851 96.6632L52.5041 95.2773C52.3043 95.2027 52.1291 95.074 51.9978 94.9054C51.8665 94.7369 51.7843 94.5351 51.7604 94.3224C50.1045 79.8389 64.5451 43.2806 64.6912 42.9131L64.7316 42.8113L77.8955 45.7349L77.9229 45.7648C83.1748 51.5172 87.4918 87.7989 88.3038 95.0137C88.3341 95.2743 88.275 95.5375 88.1364 95.7599C87.9977 95.9823 87.7878 96.1506 87.5411 96.2372L84.292 97.3909C84.1693 97.4345 84.0401 97.4568 83.9099 97.4568Z" fill="#2F2E41"/>
<path d="M72.5678 46.9116C69.3784 46.9116 65.8226 46.2732 64.7281 43.6381L64.7029 43.5775L64.737 43.5214C65.6009 42.0982 66.7427 39.6705 66.129 39.2148C64.92 38.3174 64.3334 36.841 64.3855 34.8266C64.4985 30.4536 67.4663 26.5712 71.7703 25.1655C72.9716 24.7795 74.1943 24.4635 75.4319 24.219C76.3342 24.0362 77.2656 24.0563 78.1593 24.2779C79.0529 24.4994 79.8865 24.9169 80.6004 25.5004C81.3231 26.0877 81.9074 26.8285 82.3112 27.6695C82.7149 28.5104 82.9281 29.4307 82.9355 30.3643C82.9806 35.0375 82.264 41.5463 78.5938 46.0148C78.4218 46.2221 78.1824 46.3619 77.9178 46.4095C76.1521 46.7302 74.3622 46.8982 72.5678 46.9116Z" fill="#CCCCCC"/>
<path d="M71.3814 46.7366C71.555 46.1115 71.9673 45.5804 72.5286 45.2588C73.09 44.9372 73.7552 44.851 74.3795 45.019C74.507 45.0547 74.6313 45.1009 74.7512 45.1572L78.8553 41.4072L81.7095 43.3378L75.8404 48.5523C75.5754 49.0321 75.1582 49.409 74.6552 49.6233C74.1521 49.8375 73.5922 49.8766 73.0645 49.7345C72.757 49.65 72.4693 49.5052 72.218 49.3084C71.9667 49.1116 71.7567 48.8668 71.6002 48.588C71.4437 48.3092 71.3437 48.0021 71.3062 47.6843C71.2686 47.3665 71.2942 47.0444 71.3814 46.7366Z" fill="#FFB8B8"/>
<path d="M78.2052 46.7842C77.9389 46.7844 77.6808 46.6919 77.4747 46.5226L75.8562 45.1947C75.7213 45.084 75.6131 44.9441 75.5397 44.7855C75.4662 44.6268 75.4295 44.4536 75.4322 44.2787C75.4349 44.1038 75.4769 43.9317 75.5552 43.7754C75.6335 43.6192 75.746 43.4827 75.8843 43.3762L82.6724 38.1492C82.7528 38.0869 82.8056 37.9953 82.8192 37.8942C82.8328 37.7931 82.8062 37.6907 82.7451 37.6092L78.5554 32.048C78.0686 31.4041 77.8244 30.608 77.8661 29.8006C77.9078 28.9933 78.2327 28.2268 78.7832 27.6369C79.363 27.0082 80.157 26.6213 81.0076 26.553C81.8583 26.4847 82.7034 26.7399 83.3753 27.2681L83.4019 27.2962L87.7769 33.5858C88.25 33.9583 88.6309 34.4354 88.89 34.9801C89.149 35.5248 89.2791 36.1222 89.2702 36.7257C89.2612 37.3293 89.1134 37.9225 88.8384 38.4592C88.5633 38.9959 88.1684 39.4615 87.6844 39.8196L78.8929 46.5568C78.6938 46.7045 78.4528 46.7842 78.2052 46.7842Z" fill="#CCCCCC"/>
<path d="M69.3056 14.7002V11.5592L74.8907 9.1106L80.2162 11.5592V14.7002C80.2162 14.8369 80.1621 14.968 80.0658 15.0647C79.9695 15.1613 79.8389 15.2157 79.7028 15.2157H69.819C69.6829 15.2157 69.5523 15.1613 69.456 15.0647C69.3597 14.968 69.3056 14.8369 69.3056 14.7002Z" fill="#2F2E41"/>
<path d="M74.6343 7.19108C73.8131 4.55212 75.5378 1.52775 78.0874 0.483177C80.637 -0.561391 83.6874 0.168795 85.8387 1.89458C87.9901 3.62036 89.3249 6.20526 90.0322 8.87728C90.7394 11.5493 90.8737 14.3356 91.0042 17.0972C94.1368 17.6749 96.2677 21.4053 95.1826 24.4117C94.0974 27.4181 90.0808 28.9117 87.3069 27.3403C84.533 25.7689 83.7296 21.5449 85.7316 19.0579C86.6789 17.8811 87.208 16.4206 87.2353 14.9078C87.2625 13.3949 86.7862 11.9162 85.8819 10.7058C84.9775 9.49545 83.6969 8.62257 82.2426 8.22547C80.7884 7.82836 79.2438 7.92972 77.8534 8.51349C76.3096 9.1617 74.3724 7.4775 74.6343 7.19108Z" fill="#2F2E41"/>
<path d="M39.4359 26.0539C35.6854 26.0292 31.9817 25.2148 28.5643 23.6633C28.3608 23.5723 28.1882 23.4238 28.0673 23.236C27.9464 23.0482 27.8825 22.8291 27.8835 22.6055V13.2188C27.8838 12.9113 28.0056 12.6165 28.2222 12.3991C28.4388 12.1816 28.7324 12.0593 29.0387 12.059H49.8331C50.1394 12.0593 50.433 12.1816 50.6496 12.3991C50.8662 12.6165 50.988 12.9113 50.9883 13.2188V22.6055C50.9892 22.8291 50.9254 23.0482 50.8045 23.236C50.6836 23.4238 50.511 23.5723 50.3075 23.6633C46.8901 25.2148 43.1864 26.0292 39.4359 26.0539Z" fill="#00A0E3"/>
<path d="M39.433 18.4496C39.2789 18.4497 39.1263 18.4189 38.9841 18.359L22.4945 11.3741C22.2818 11.284 22.1009 11.1321 21.9751 10.9378C21.8493 10.7436 21.7843 10.5159 21.7885 10.2843C21.7927 10.0526 21.866 9.82749 21.9988 9.638C22.1317 9.44851 22.318 9.30331 22.5338 9.22113L39.0236 2.94039C39.2892 2.83876 39.5829 2.83939 39.8481 2.94215L56.117 9.22288C56.3315 9.30573 56.5166 9.45096 56.6485 9.64C56.7804 9.82903 56.8531 10.0533 56.8574 10.284C56.8616 10.5148 56.7972 10.7416 56.6723 10.9354C56.5475 11.1292 56.3679 11.2812 56.1565 11.372L39.8874 18.3567C39.7438 18.4181 39.5892 18.4497 39.433 18.4496Z" fill="#00A0E3"/>
<path d="M29.8089 24.3021C30.6596 24.3021 31.3492 23.6097 31.3492 22.7556C31.3492 21.9015 30.6596 21.2091 29.8089 21.2091C28.9582 21.2091 28.2686 21.9015 28.2686 22.7556C28.2686 23.6097 28.9582 24.3021 29.8089 24.3021Z" fill="#3F3D56"/>
<path opacity="0.2" d="M56.2127 10.3805L39.9436 17.3653C39.8167 17.4197 39.6803 17.4479 39.5423 17.4483C39.4044 17.4486 39.2678 17.421 39.1407 17.3672L22.651 10.3825C22.444 10.2969 22.2712 10.1444 22.16 9.94923C22.0873 10.0758 22.0423 10.2165 22.0279 10.3619C22.0135 10.5073 22.03 10.6541 22.0765 10.7926C22.1229 10.9311 22.1981 11.0581 22.2972 11.1651C22.3963 11.2722 22.5169 11.3569 22.651 11.4135L39.1407 18.3982C39.2678 18.452 39.4044 18.4796 39.5423 18.4793C39.6803 18.4789 39.8167 18.4507 39.9436 18.3962L56.2127 11.4115C56.3462 11.3543 56.4661 11.2694 56.5645 11.1623C56.6628 11.0552 56.7375 10.9284 56.7834 10.7902C56.8294 10.652 56.8457 10.5056 56.8311 10.3606C56.8166 10.2156 56.7716 10.0754 56.6991 9.94922C56.5887 10.1429 56.4178 10.2945 56.2127 10.3805Z" fill="black"/>
<path d="M29.9383 22.7495C30.0064 22.7495 30.0717 22.7224 30.1198 22.674C30.168 22.6257 30.195 22.5601 30.195 22.4918V13.8671L38.662 10.7703C38.7301 10.7713 38.7958 10.7451 38.8446 10.6975C38.8935 10.6499 38.9215 10.5847 38.9225 10.5163C38.9235 10.448 38.8975 10.382 38.85 10.333C38.8026 10.2839 38.7377 10.2558 38.6696 10.2548L30.2027 13.3516C30.1345 13.3501 30.0668 13.3624 30.0035 13.3879C29.9403 13.4134 29.8829 13.4515 29.8347 13.4999C29.786 13.5477 29.7474 13.6049 29.7211 13.668C29.6948 13.731 29.6814 13.7988 29.6816 13.8671V22.4918C29.6816 22.5601 29.7086 22.6257 29.7568 22.674C29.8049 22.7223 29.8702 22.7495 29.9383 22.7495Z" fill="#3F3D56"/>
</g>
<defs>
<clipPath id="clip0_553_213">
<rect width="191" height="139" fill="white"/>
</clipPath>
</defs>
</svg>
